<svg width="294" height="104" viewBox="0 0 294 104" fill="none" xmlns="http://www.w3.org/2000/svg">
<path d="M86.4525 28.8176C79.4822 21.8473 70.2218 17.6396 60.3868 16.974C50.5518 16.3084 40.8088 19.2301 32.963 25.1977C25.1171 31.1653 19.7001 39.7744 17.7155 49.4301C15.7309 59.0857 17.3132 69.1335 22.1693 77.7118C27.0255 86.2902 34.8262 92.8177 44.1264 96.0852" stroke="#0F5720" stroke-width="15.4844" stroke-linecap="round"/>
<path d="M53.7045 59.3553H94.1439C97.5458 59.3553 99.2934 63.4284 96.9494 65.8938L68.2316 96.0982" stroke="#FFC700" stroke-width="15.4844" stroke-linecap="round"/>
<path d="M130.301 39.1471H140.472V51.849C139.258 52.2681 137.866 52.612 136.297 52.8807C134.728 53.1386 133.084 53.2675 131.365 53.2675C129.097 53.2675 127.109 52.8269 125.401 51.9457C123.692 51.0646 122.36 49.7267 121.403 47.9321C120.447 46.1267 119.969 43.8485 119.969 41.0975C119.969 38.6259 120.441 36.4928 121.387 34.6982C122.333 32.8929 123.724 31.5013 125.562 30.5234C127.41 29.5347 129.672 29.0404 132.348 29.0404C133.82 29.0404 135.217 29.1801 136.539 29.4595C137.861 29.7389 139.011 30.0935 139.989 30.5234L137.974 35.5203C137.125 35.1012 136.243 34.7896 135.33 34.5854C134.417 34.3705 133.433 34.263 132.38 34.263C130.973 34.263 129.839 34.58 128.979 35.214C128.13 35.8481 127.512 36.697 127.125 37.7609C126.739 38.814 126.545 39.9799 126.545 41.2587C126.545 42.7202 126.749 43.956 127.158 44.9661C127.577 45.9655 128.184 46.7285 128.979 47.2551C129.785 47.7709 130.758 48.0288 131.897 48.0288C132.273 48.0288 132.73 48.0019 133.267 47.9482C133.815 47.8945 134.229 47.83 134.508 47.7548V44.0635H130.301V39.1471ZM152.997 29.3789C155.135 29.3789 156.914 29.6422 158.332 30.1687C159.751 30.6846 160.814 31.4583 161.524 32.4899C162.244 33.5215 162.604 34.8057 162.604 36.3424C162.604 37.2988 162.443 38.1692 162.12 38.9537C161.798 39.7382 161.336 40.442 160.734 41.0653C160.143 41.6778 159.434 42.2151 158.606 42.6772L165.473 52.9451H158.252L153.255 44.3697H151.643V52.9451H145.276V29.3789H152.997ZM152.9 34.1985H151.643V39.5823H152.835C153.813 39.5823 154.614 39.3674 155.237 38.9376C155.861 38.5077 156.172 37.7394 156.172 36.6325C156.172 35.8696 155.914 35.2731 155.398 34.8433C154.883 34.4135 154.05 34.1985 152.9 34.1985ZM181.608 52.9451H167.617V29.3789H181.608V34.4887H173.984V38.1961H181.044V43.3059H173.984V47.7548H181.608V52.9451ZM199.726 52.9451H185.735V29.3789H199.726V34.4887H192.102V38.1961H199.162V43.3059H192.102V47.7548H199.726V52.9451ZM226.291 52.9451H217.941L209.333 36.3424H209.188C209.242 36.8475 209.29 37.4546 209.333 38.1638C209.376 38.8731 209.414 39.5985 209.446 40.3399C209.478 41.0707 209.494 41.7316 209.494 42.3226V52.9451H203.853V29.3789H212.17L220.746 45.756H220.842C220.81 45.2402 220.778 44.6438 220.746 43.9668C220.713 43.279 220.681 42.5859 220.649 41.8874C220.627 41.1889 220.617 40.571 220.617 40.0337V29.3789H226.291V52.9451ZM131.333 74.263C130.58 74.263 129.909 74.4242 129.318 74.7466C128.727 75.0582 128.222 75.5149 127.802 76.1167C127.383 76.7185 127.061 77.4546 126.835 78.325C126.62 79.1847 126.513 80.1626 126.513 81.2587C126.513 82.7417 126.701 83.9882 127.077 84.9984C127.453 86.0085 128.023 86.7715 128.786 87.2873C129.559 87.8031 130.527 88.061 131.687 88.061C132.74 88.061 133.75 87.9159 134.718 87.6258C135.695 87.3357 136.679 86.9864 137.667 86.5781V91.9619C136.625 92.4239 135.556 92.7571 134.46 92.9612C133.374 93.1654 132.219 93.2675 130.994 93.2675C128.436 93.2675 126.341 92.7624 124.708 91.7523C123.085 90.7314 121.887 89.3183 121.113 87.513C120.35 85.7076 119.969 83.6121 119.969 81.2265C119.969 79.4426 120.216 77.8092 120.71 76.3263C121.215 74.8433 121.951 73.5591 122.918 72.4738C123.885 71.3777 125.078 70.5341 126.497 69.9431C127.926 69.3413 129.559 69.0404 131.397 69.0404C132.536 69.0404 133.734 69.1747 134.992 69.4434C136.26 69.7013 137.495 70.1204 138.699 70.7007L136.749 75.7137C135.889 75.3054 135.018 74.9615 134.137 74.6821C133.256 74.4027 132.321 74.263 131.333 74.263ZM164.328 81.1298C164.328 82.9459 164.108 84.6008 163.668 86.0945C163.238 87.5774 162.561 88.8562 161.637 89.9308C160.712 91.0055 159.525 91.8329 158.074 92.4132C156.624 92.9827 154.888 93.2675 152.868 93.2675C150.89 93.2675 149.176 92.9827 147.726 92.4132C146.286 91.8329 145.098 91.0108 144.163 89.947C143.228 88.8724 142.535 87.5882 142.084 86.0945C141.633 84.6008 141.407 82.9351 141.407 81.0975C141.407 78.6474 141.81 76.5197 142.616 74.7143C143.433 72.8983 144.69 71.4959 146.388 70.5072C148.086 69.5079 150.256 69.0082 152.9 69.0082C155.587 69.0082 157.768 69.5079 159.444 70.5072C161.131 71.5066 162.367 72.9144 163.152 74.7305C163.936 76.5466 164.328 78.6797 164.328 81.1298ZM148.113 81.1298C148.113 82.5483 148.274 83.7679 148.596 84.7888C148.919 85.8097 149.429 86.5942 150.127 87.1422C150.826 87.6903 151.739 87.9643 152.868 87.9643C154.039 87.9643 154.969 87.6903 155.656 87.1422C156.355 86.5942 156.855 85.8097 157.155 84.7888C157.467 83.7679 157.623 82.5483 157.623 81.1298C157.623 79.002 157.268 77.3203 156.559 76.0845C155.85 74.8487 154.63 74.2308 152.9 74.2308C151.75 74.2308 150.821 74.5102 150.111 75.069C149.413 75.6278 148.902 76.423 148.58 77.4546C148.268 78.4862 148.113 79.7113 148.113 81.1298ZM178.852 92.9451L174.032 75.9716H173.887C173.93 76.4122 173.973 77.0086 174.016 77.7609C174.07 78.5131 174.118 79.3244 174.161 80.1949C174.204 81.0653 174.226 81.9035 174.226 82.7095V92.9451H168.584V69.3789H177.063L181.979 86.1106H182.108L186.928 69.3789H195.422V92.9451H189.571V82.6127C189.571 81.8713 189.582 81.076 189.603 80.2271C189.636 79.3674 189.668 78.5615 189.7 77.8092C189.743 77.0463 189.781 76.4445 189.813 76.0039H189.668L184.913 92.9451H178.852ZM210.768 92.9451L205.948 75.9716H205.803C205.846 76.4122 205.889 77.0086 205.932 77.7609C205.986 78.5131 206.034 79.3244 206.077 80.1949C206.12 81.0653 206.142 81.9035 206.142 82.7095V92.9451H200.5V69.3789H208.979L213.895 86.1106H214.024L218.844 69.3789H227.338V92.9451H221.487V82.6127C221.487 81.8713 221.498 81.076 221.519 80.2271C221.552 79.3674 221.584 78.5615 221.616 77.8092C221.659 77.0463 221.697 76.4445 221.729 76.0039H221.584L216.829 92.9451H210.768ZM252.452 69.3789V83.5638C252.452 85.5411 252.076 87.2604 251.324 88.7219C250.571 90.1726 249.443 91.2956 247.939 92.0908C246.434 92.8753 244.548 93.2675 242.281 93.2675C239.035 93.2675 236.558 92.4347 234.85 90.769C233.141 89.1034 232.287 86.75 232.287 83.7088V69.3789H238.686V83.2092C238.686 84.8748 238.998 86.0837 239.621 86.836C240.244 87.5882 241.163 87.9643 242.377 87.9643C243.248 87.9643 243.957 87.8031 244.505 87.4807C245.053 87.1476 245.451 86.6264 245.698 85.9172C245.956 85.2079 246.085 84.2945 246.085 83.1769V69.3789H252.452ZM267.797 92.9451H261.43V74.5854H255.676V69.3789H273.536V74.5854H267.797V92.9451ZM290.896 92.9451H276.905V69.3789H290.896V74.4887H283.272V78.1961H290.332V83.3059H283.272V87.7548H290.896V92.9451Z" fill="#0F5720"/>
</svg>
